<svg width="74" height="74" viewBox="0 0 74 74" fill="none" xmlns="http://www.w3.org/2000/svg">
<path d="M67.0832 27.7231C63.1143 14.8791 51.1295 5.52037 36.9993 5.52037C22.8689 5.52037 10.8839 14.8791 6.91539 27.7233C2.86172 28.9297 0 32.7042 0 36.9998C0 41.2952 2.86172 45.0698 6.91524 46.2762C10.8838 59.1208 22.8689 68.4796 36.9993 68.4796C51.1297 68.4796 63.1146 59.1208 67.0833 46.2764C71.1377 45.0712 74 41.2968 74 36.9998C74 32.7026 71.1376 28.9282 67.0832 27.7231ZM6.07739 42.9047C4.07058 41.6747 2.76113 39.4565 2.76113 36.9997C2.76113 34.5428 4.07043 32.3246 6.07754 31.0947C5.71289 33.0083 5.51965 34.9818 5.51965 36.9998C5.51965 39.0179 5.71274 40.9914 6.07739 42.9047ZM36.9993 65.7184C21.164 65.7184 8.28092 52.8353 8.28092 37C8.28092 26.0487 14.4434 16.511 23.4817 11.6683C24.8548 14.59 29.1738 21.9004 39.4118 25.9957C39.5799 26.063 39.7533 26.0948 39.924 26.0948C40.4718 26.0948 40.9904 25.7665 41.2063 25.2265C41.4894 24.5186 41.145 23.7151 40.437 23.4318C31.1346 19.7109 27.1743 12.9684 25.9835 10.4795C29.1196 9.17195 32.535 8.4055 36.1132 8.29653C37.07 10.2371 39.8172 14.7931 45.4937 17.3734C45.6791 17.4576 45.8731 17.4974 46.0641 17.4974C46.5889 17.4974 47.0906 17.1966 47.322 16.6877C47.6375 15.9935 47.3305 15.1752 46.6363 14.8597C42.8117 13.1213 40.5166 10.2783 39.3272 8.3766C54.0778 9.5658 65.7172 21.9487 65.7172 37.0001C65.7176 52.8353 52.8348 65.7184 36.9993 65.7184ZM67.9207 42.9058C68.2855 40.9921 68.4786 39.0182 68.4786 37C68.4786 34.9816 68.2854 33.0075 67.9204 31.0936C69.9284 32.3227 71.2384 34.5414 71.2384 36.9998C71.2387 39.458 69.9288 41.6767 67.9207 42.9058Z" fill="white"/>
<path d="M25.1777 35.3081C21.8768 35.3081 19.1914 37.9935 19.1914 41.2945C19.1914 42.0569 19.8094 42.675 20.572 42.675C21.3345 42.675 21.9525 42.0569 21.9525 41.2945C21.9525 39.516 23.3993 38.0694 25.1776 38.0694C26.9559 38.0694 28.4028 39.5161 28.4028 41.2945C28.4028 42.0569 29.0208 42.675 29.7834 42.675C30.5459 42.675 31.1639 42.0569 31.1639 41.2945C31.1642 37.9935 28.4787 35.3081 25.1777 35.3081Z" fill="white"/>
<path d="M48.8208 35.3081C45.5198 35.3081 42.8343 37.9935 42.8343 41.2945C42.8343 42.0569 43.4523 42.675 44.2149 42.675C44.9775 42.675 45.5954 42.0569 45.5954 41.2945C45.5954 39.516 47.0422 38.0694 48.8206 38.0694C50.5992 38.0694 52.0458 39.5161 52.0458 41.2945C52.0458 42.0569 52.6639 42.675 53.4264 42.675C54.1891 42.675 54.807 42.0569 54.807 41.2945C54.807 37.9935 52.1217 35.3081 48.8208 35.3081Z" fill="white"/>
<path d="M45.4495 50.5864C44.9101 50.0473 44.0361 50.0473 43.4967 50.5864C39.9876 54.0954 34.2779 54.0954 30.7688 50.5864C30.2294 50.0473 29.3555 50.0473 28.8164 50.5864C28.2771 51.1255 28.2771 51.9997 28.8164 52.5387C31.0393 54.7616 33.9929 55.9859 37.133 55.9859C40.2731 55.9859 43.2266 54.7617 45.4496 52.5387C45.9887 51.9996 45.9887 51.1255 45.4495 50.5864Z" fill="white"/>
<path d="M38.8416 43.2913H35.157C34.3944 43.2913 33.7765 43.9095 33.7765 44.6719C33.7765 45.4343 34.3946 46.0524 35.157 46.0524H38.8416C39.6043 46.0524 40.2221 45.4343 40.2221 44.6719C40.2221 43.9095 39.6041 43.2913 38.8416 43.2913Z" fill="white"/>
</svg>
