<svg width="74" height="74" viewBox="0 0 74 74" fill="none" xmlns="http://www.w3.org/2000/svg">
<path d="M24.1731 35.5529C23.6631 37.8853 21.5825 39.6371 19.0994 39.6371C18.4374 39.6371 17.9007 40.1737 17.9007 40.8358C17.9007 41.498 18.4374 42.0345 19.0994 42.0345C22.8991 42.0345 26.0554 39.2285 26.6058 35.5798C28.9323 35.3282 31.0799 34.2916 32.7424 32.5947C33.2057 32.1217 33.1979 31.3627 32.725 30.8995C32.2522 30.4365 31.4932 30.4439 31.0298 30.9168C29.5596 32.4176 27.5931 33.2441 25.4925 33.2441C21.2182 33.2441 17.7409 29.7667 17.7409 25.4924C17.7409 24.8303 17.2042 24.2937 16.5421 24.2937C15.8801 24.2937 15.3434 24.8303 15.3434 25.4924C15.3434 30.6413 19.1983 34.9037 24.1731 35.5529Z" fill="white"/>
<path d="M29.2484 45.9503C29.2484 45.2882 28.7117 44.7516 28.0497 44.7516C22.4535 44.7516 17.9007 49.3045 17.9007 54.9006C17.9007 54.9585 17.9028 55.0165 17.9037 55.0745C17.458 55.0144 17.004 54.9806 16.5421 54.9806C15.8801 54.9806 15.3434 55.5171 15.3434 56.1793C15.3434 56.8414 15.8801 57.378 16.5421 57.378C20.8164 57.378 24.2938 60.8553 24.2938 65.1296C24.2938 65.7917 24.8305 66.3283 25.4925 66.3283C26.1545 66.3283 26.6912 65.7917 26.6912 65.1296C26.6912 60.8764 24.0601 57.2282 20.3411 55.721C20.3126 55.4495 20.2981 55.1747 20.2981 54.9006C20.2981 50.6264 23.7754 47.149 28.0497 47.149C28.7117 47.149 29.2484 46.6125 29.2484 45.9503Z" fill="white"/>
<path d="M70.1642 35.7214C70.1642 32.9923 69.0742 30.4062 67.1474 28.5042C67.4525 27.528 67.6069 26.5182 67.6069 25.4924C67.6069 20.5579 64.0664 16.4368 59.3928 15.5306C59.75 14.6402 59.9352 13.6857 59.9352 12.7063C59.9352 9.58052 58.036 6.89063 55.3312 5.72805C50.8249 2.13897 45.8963 0 42.1145 0C40.0123 0 38.1481 1.03376 37 2.61861C35.852 1.03376 33.9878 0 31.8856 0C28.1037 0 23.1751 2.13897 18.6688 5.72805C15.964 6.89063 14.0648 9.58052 14.0648 12.7063C14.0648 13.6857 14.2501 14.6402 14.6073 15.5306C9.9336 16.4368 6.39311 20.5579 6.39311 25.4924C6.39311 26.5182 6.54735 27.5278 6.85262 28.5042C4.9259 30.4062 3.83588 32.9923 3.83588 35.7214C3.83588 37.8548 4.499 39.8355 5.62802 41.4712C4.45473 43.1673 3.83588 45.1458 3.83588 47.2289C3.83588 50.919 5.84762 54.3 9.03282 56.0827C8.978 56.5386 8.95035 56.9985 8.95035 57.4579C8.95035 62.4355 12.1972 66.8364 16.9081 68.3362C18.9573 71.8431 22.6899 74 26.7711 74C31.2454 74 35.1251 71.4138 37 67.659C38.875 71.4138 42.7546 74 47.229 74C51.3102 74 55.0428 71.8431 57.0919 68.3362C61.8028 66.8362 65.0497 62.4354 65.0497 57.4579C65.0497 56.9985 65.0221 56.5386 64.9672 56.0827C68.1524 54.3 70.1642 50.919 70.1642 47.2289C70.1642 45.1458 69.5453 43.1673 68.372 41.4712C69.501 39.8355 70.1642 37.8548 70.1642 35.7214ZM26.7711 71.6026C23.4101 71.6026 20.3475 69.7496 18.7783 66.7669C18.6228 66.4713 18.3514 66.2541 18.029 66.1674C14.0952 65.1087 11.3478 61.5272 11.3478 57.4579C11.3478 56.8489 11.4091 56.239 11.5301 55.6448C11.6423 55.0939 11.3564 54.5388 10.8425 54.3102C8.04253 53.0655 6.23328 50.2858 6.23328 47.2289C6.23328 45.8386 6.59386 44.5096 7.28191 43.3325C9.07134 44.9102 11.4174 45.8704 13.9849 45.8704C14.6469 45.8704 15.1836 45.3339 15.1836 44.6717C15.1836 44.0095 14.6469 43.473 13.9849 43.473C9.71065 43.473 6.23328 39.9956 6.23328 35.7214C6.23328 33.4205 7.24851 31.252 9.01875 29.7725C9.41832 29.4384 9.55657 28.8846 9.36078 28.4021C8.98231 27.4693 8.79052 26.4904 8.79052 25.4924C8.79052 21.2182 12.2679 17.7408 16.5421 17.7408C20.8164 17.7408 24.2938 21.2182 24.2938 25.4924C24.2938 26.1546 24.8305 26.6911 25.4925 26.6911C26.1545 26.6911 26.6912 26.1546 26.6912 25.4924C26.6912 20.1155 22.4874 15.7041 17.1941 15.3666C16.7143 14.5646 16.4622 13.6526 16.4622 12.7063C16.4622 10.5695 17.7594 8.73056 19.6073 7.93398C19.6787 7.91273 19.7488 7.88492 19.8164 7.84975C20.3889 7.63207 21.0088 7.51188 21.6566 7.51188C23.6636 7.51188 25.4552 8.63403 26.3325 10.4407C26.6218 11.0364 27.3391 11.2848 27.9345 10.9953C28.53 10.7062 28.7784 9.98904 28.4891 9.39352C27.4876 7.33127 25.5922 5.84904 23.4094 5.324C26.4688 3.45722 29.4808 2.39741 31.8856 2.39741C34.0447 2.39741 35.8013 4.15391 35.8013 6.31318V21.8246C34.7242 20.9701 33.364 20.4579 31.8856 20.4579C31.2235 20.4579 30.6868 20.9944 30.6868 21.6566C30.6868 22.3188 31.2235 22.8553 31.8856 22.8553C34.0447 22.8553 35.8013 24.6118 35.8013 26.7711V55.5845C34.3109 53.6617 32.2098 52.2104 29.7383 51.5464C29.0991 51.3752 28.4414 51.7537 28.2696 52.393C28.0978 53.0324 28.4769 53.69 29.1162 53.8616C33.0523 54.9192 35.8013 58.5011 35.8013 62.5724C35.8013 67.5516 31.7503 71.6026 26.7711 71.6026ZM63.1575 54.3104C62.6437 54.539 62.3577 55.0939 62.4699 55.645C62.5909 56.2392 62.6523 56.8491 62.6523 57.458C62.6523 61.5274 59.9049 65.1088 55.971 66.1675C55.6487 66.2543 55.3771 66.4715 55.2218 66.767C53.6526 69.7496 50.59 71.6026 47.229 71.6026C42.2497 71.6026 38.1987 67.5516 38.1987 62.5724C38.1987 62.2353 38.1831 61.9011 38.1538 61.5701C38.1823 61.4676 38.1987 61.3601 38.1987 61.2485V21.6566C38.1987 19.4973 39.9554 17.7408 42.1145 17.7408C42.7765 17.7408 43.3132 17.2043 43.3132 16.5421C43.3132 15.88 42.7765 15.3434 42.1145 15.3434C40.6361 15.3434 39.2758 15.8557 38.1987 16.7101V6.31318C38.1987 4.15391 39.9554 2.39741 42.1145 2.39741C44.5193 2.39741 47.5312 3.45722 50.5906 5.324C48.4078 5.84888 46.5125 7.33127 45.511 9.39352C45.2217 9.9892 45.4701 10.7063 46.0656 10.9953C46.6611 11.2846 47.3782 11.0364 47.6675 10.4407C48.5448 8.63403 50.3365 7.51188 52.3434 7.51188C52.9912 7.51188 53.6113 7.63207 54.1837 7.84975C54.2511 7.88492 54.3211 7.91257 54.3923 7.93382C56.2405 8.7304 57.5378 10.5694 57.5378 12.7063C57.5378 13.6526 57.2858 14.5646 56.806 15.3666C51.5127 15.7041 47.3089 20.1155 47.3089 25.4924C47.3089 26.1546 47.8456 26.6911 48.5076 26.6911C49.1696 26.6911 49.7063 26.1546 49.7063 25.4924C49.7063 21.2182 53.1836 17.7408 57.4579 17.7408C61.7322 17.7408 65.2095 21.2182 65.2095 25.4924C65.2095 26.4904 65.0177 27.4693 64.6394 28.4021C64.4436 28.8848 64.5819 29.4384 64.9815 29.7725C66.7515 31.252 67.7668 33.4205 67.7668 35.7214C67.7668 39.9956 64.2894 43.473 60.0151 43.473C59.3531 43.473 58.8164 44.0095 58.8164 44.6717C58.8164 45.3339 59.3531 45.8704 60.0151 45.8704C62.5826 45.8704 64.9287 44.9102 66.7181 43.3325C67.4064 44.5096 67.7668 45.8386 67.7668 47.2289C67.7668 50.2858 65.9575 53.0655 63.1575 54.3104Z" fill="white"/>
<path d="M57.4579 38.3585C54.9748 38.3585 52.8942 36.6067 52.3842 34.2743C57.3589 33.6251 61.2138 29.3627 61.2138 24.2138C61.2138 23.5517 60.6771 23.0151 60.0151 23.0151C59.3531 23.0151 58.8164 23.5517 58.8164 24.2138C58.8164 28.4881 55.339 31.9655 51.0648 31.9655C48.9642 31.9655 46.9977 31.139 45.5274 29.6382C45.0642 29.1654 44.3052 29.1576 43.8323 29.6209C43.3594 30.0843 43.3515 30.8431 43.8149 31.3161C45.4774 33.013 47.625 34.0496 49.9514 34.3012C50.5019 37.9499 53.6581 40.756 57.4579 40.756C58.1199 40.756 58.6566 40.2194 58.6566 39.5573C58.6566 38.8951 58.1199 38.3585 57.4579 38.3585Z" fill="white"/>
<path d="M53.622 52.4233C53.1601 52.4233 52.7062 52.4572 52.2605 52.5173C52.2614 52.4593 52.2635 52.4013 52.2635 52.3434C52.2635 46.7472 47.7107 42.1944 42.1145 42.1944C41.4525 42.1944 40.9158 42.7309 40.9158 43.3931C40.9158 44.0553 41.4525 44.5918 42.1145 44.5918C46.3887 44.5918 49.8661 48.0692 49.8661 52.3434C49.8661 52.6174 49.8515 52.8923 49.8231 53.1638C46.1041 54.671 43.473 58.3192 43.473 62.5724C43.473 63.2345 44.0097 63.7711 44.6717 63.7711C45.3337 63.7711 45.8704 63.2345 45.8704 62.5724C45.8704 58.2981 49.3478 54.8207 53.622 54.8207C54.284 54.8207 54.8207 54.2842 54.8207 53.622C54.8207 52.9599 54.284 52.4233 53.622 52.4233Z" fill="white"/>
</svg>
