<svg width="74" height="74" viewBox="0 0 74 74" fill="none" xmlns="http://www.w3.org/2000/svg">
<g clip-path="url(#clip0_109_59)">
<path d="M67.0625 13.875C67.6758 13.875 68.264 14.1186 68.6977 14.5523C69.1314 14.986 69.375 15.5742 69.375 16.1875V57.8125C69.375 58.4258 69.1314 59.014 68.6977 59.4477C68.264 59.8814 67.6758 60.125 67.0625 60.125H6.9375C6.32419 60.125 5.73599 59.8814 5.30232 59.4477C4.86864 59.014 4.625 58.4258 4.625 57.8125V16.1875C4.625 15.5742 4.86864 14.986 5.30232 14.5523C5.73599 14.1186 6.32419 13.875 6.9375 13.875H67.0625ZM6.9375 9.25C5.09756 9.25 3.33298 9.98091 2.03195 11.2819C0.730913 12.583 0 14.3476 0 16.1875L0 57.8125C0 59.6524 0.730913 61.417 2.03195 62.7181C3.33298 64.0191 5.09756 64.75 6.9375 64.75H67.0625C68.9024 64.75 70.667 64.0191 71.9681 62.7181C73.2691 61.417 74 59.6524 74 57.8125V16.1875C74 14.3476 73.2691 12.583 71.9681 11.2819C70.667 9.98091 68.9024 9.25 67.0625 9.25H6.9375Z" fill="white"/>
<path d="M32.375 25.4375C32.375 24.8242 32.6186 24.236 33.0523 23.8023C33.486 23.3686 34.0742 23.125 34.6875 23.125H57.8125C58.4258 23.125 59.014 23.3686 59.4477 23.8023C59.8814 24.236 60.125 24.8242 60.125 25.4375C60.125 26.0508 59.8814 26.639 59.4477 27.0727C59.014 27.5064 58.4258 27.75 57.8125 27.75H34.6875C34.0742 27.75 33.486 27.5064 33.0523 27.0727C32.6186 26.639 32.375 26.0508 32.375 25.4375ZM25.456 21.4877C25.6714 21.7026 25.8422 21.9577 25.9588 22.2387C26.0754 22.5196 26.1354 22.8208 26.1354 23.125C26.1354 23.4292 26.0754 23.7304 25.9588 24.0113C25.8422 24.2922 25.6714 24.5474 25.456 24.7622L18.5185 31.6997C18.3037 31.9151 18.0485 32.086 17.7676 32.2025C17.4866 32.3191 17.1854 32.3791 16.8812 32.3791C16.5771 32.3791 16.2759 32.3191 15.9949 32.2025C15.714 32.086 15.4588 31.9151 15.244 31.6997L12.9315 29.3872C12.7165 29.1722 12.5459 28.917 12.4296 28.6361C12.3132 28.3552 12.2533 28.0541 12.2533 27.75C12.2533 27.1359 12.4973 26.547 12.9315 26.1127C13.3657 25.6785 13.9547 25.4346 14.5687 25.4346C15.1828 25.4346 15.7718 25.6785 16.206 26.1127L16.8812 26.7926L22.1815 21.4877C22.3963 21.2724 22.6515 21.1015 22.9324 20.985C23.2134 20.8684 23.5146 20.8084 23.8187 20.8084C24.1229 20.8084 24.4241 20.8684 24.7051 20.985C24.986 21.1015 25.2412 21.2724 25.456 21.4877ZM32.375 43.9375C32.375 43.3242 32.6186 42.736 33.0523 42.3023C33.486 41.8686 34.0742 41.625 34.6875 41.625H57.8125C58.4258 41.625 59.014 41.8686 59.4477 42.3023C59.8814 42.736 60.125 43.3242 60.125 43.9375C60.125 44.5508 59.8814 45.139 59.4477 45.5727C59.014 46.0064 58.4258 46.25 57.8125 46.25H34.6875C34.0742 46.25 33.486 46.0064 33.0523 45.5727C32.6186 45.139 32.375 44.5508 32.375 43.9375ZM25.456 39.9877C25.6714 40.2026 25.8422 40.4577 25.9588 40.7387C26.0754 41.0196 26.1354 41.3208 26.1354 41.625C26.1354 41.9292 26.0754 42.2304 25.9588 42.5113C25.8422 42.7922 25.6714 43.0474 25.456 43.2622L18.5185 50.1997C18.3037 50.4151 18.0485 50.586 17.7676 50.7025C17.4866 50.8191 17.1854 50.8791 16.8812 50.8791C16.5771 50.8791 16.2759 50.8191 15.9949 50.7025C15.714 50.586 15.4588 50.4151 15.244 50.1997L12.9315 47.8872C12.7165 47.6722 12.5459 47.417 12.4296 47.1361C12.3132 46.8552 12.2533 46.5541 12.2533 46.25C12.2533 45.9459 12.3132 45.6448 12.4296 45.3639C12.5459 45.083 12.7165 44.8278 12.9315 44.6127C13.1465 44.3977 13.4018 44.2272 13.6827 44.1108C13.9636 43.9945 14.2647 43.9346 14.5687 43.9346C14.8728 43.9346 15.1739 43.9945 15.4548 44.1108C15.7357 44.2272 15.991 44.3977 16.206 44.6127L16.8812 45.2926L22.1815 39.9877C22.3963 39.7724 22.6515 39.6015 22.9324 39.485C23.2134 39.3684 23.5146 39.3084 23.8187 39.3084C24.1229 39.3084 24.4241 39.3684 24.7051 39.485C24.986 39.6015 25.2412 39.7724 25.456 39.9877Z" fill="white"/>
</g>
<defs>
<clipPath id="clip0_109_59">
<rect width="74" height="74" fill="white"/>
</clipPath>
</defs>
</svg>
