<svg width="70" height="70" viewBox="0 0 74 74" fill="none" xmlns="http://www.w3.org/2000/svg">
<path d="M72.7856 31.575H68.615V25.9503C68.615 25.2952 68.0717 24.7519 67.4165 24.7519H60.6573V19.1112C60.6573 18.4561 60.114 17.9128 59.4589 17.9128H51.5012C50.846 17.9128 50.3027 18.4561 50.3027 19.1112V31.575H23.4735V19.1112C23.4735 18.4561 22.9303 17.9128 22.2751 17.9128H14.3174C13.6623 17.9128 13.119 18.4561 13.119 19.1112V24.7359H6.35975C5.7046 24.7359 5.1613 25.2792 5.1613 25.9344V31.5591H1.19845C0.543295 31.5591 0 32.1023 0 32.7575V41.0348C0 41.6899 0.543295 42.2332 1.19845 42.2332H5.17728V48.0656C5.17728 48.7208 5.72058 49.2641 6.37573 49.2641H13.135V54.8888C13.135 55.5439 13.6783 56.0872 14.3334 56.0872H22.2911C22.9462 56.0872 23.4895 55.5439 23.4895 54.8888V42.2172H50.3187V54.8888C50.3187 55.5439 50.862 56.0872 51.5172 56.0872H59.4748C60.13 56.0872 60.6733 55.5439 60.6733 54.8888V49.2641H67.4325C68.0877 49.2641 68.631 48.7208 68.631 48.0656V42.2332H72.8016C73.4567 42.2332 74 41.6899 74 41.0348V32.7575C73.984 32.1023 73.4407 31.575 72.7856 31.575ZM5.17728 39.8523H2.39689V39.8363V33.9719H5.17728V39.8523V39.8523ZM13.135 46.8832H7.57417V27.1488H13.135V46.8832ZM21.0767 53.7063H15.5159V20.3096H21.0767V53.7063ZM50.3027 39.8523H23.4735V39.8363V33.9719H50.3027V39.8523ZM58.2604 53.7063H52.6996V20.3096H58.2604V53.7063ZM66.2181 46.8832H60.6573V27.1488H66.2181V46.8832ZM71.5871 39.8363H68.615V33.9719H71.5871V39.8363Z" fill="white"/>
</svg>
